<svg xmlns="http://www.w3.org/2000/svg" xmlns:xlink="http://www.w3.org/1999/xlink" id="Layer_1" x="0px" y="0px" viewBox="0 0 300 300" style="enable-background:new 0 0 300 300;" xml:space="preserve">
<style type="text/css">
	.st0{fill-rule:evenodd;clip-rule:evenodd;fill:#FFFFFF;}
</style>
<path d="M14.4,5.7h271.3c4.9,0,8.9,4,8.9,8.9v271.3c0,4.9-4,8.9-8.9,8.9H14.4c-4.9,0-8.9-4-8.9-8.9V14.6C5.5,9.7,9.5,5.7,14.4,5.7z"></path>
<path class="st0" d="M135.3,178.2l11.2,10.8v45.2h0.2l18.9,18.3l18.9-18.3l-11.3-10.9v-45.2l-19-18.4L135.3,178.2z"></path>
<path class="st0" d="M135.3,138l19.1-19.1l19.1,19.1l-19.1,19.1L135.3,138z"></path>
<path class="st0" d="M120.1,48L99.7,69.4v164l25.4-26.3l0.3-37.1l-11.7-12.1l11.4-11.8V79.8L138,66.6L120.1,48z"></path>
<path class="st0" d="M199.1,239.2c-0.2,0.5-0.5,1-0.9,1.4c-0.8,0.8-1.9,1.3-3.1,1.3c-0.6,0-1.2-0.1-1.7-0.3c-0.5-0.2-1-0.5-1.4-0.9  c-0.4-0.4-0.7-0.9-0.9-1.4c-0.2-0.6-0.3-1.1-0.3-1.7c0-0.6,0.1-1.2,0.3-1.7c0.2-0.5,0.5-1,0.9-1.4c0.4-0.4,0.9-0.8,1.4-1  c0.6-0.2,1.1-0.3,1.7-0.3c0.6,0,1.2,0.1,1.7,0.3c1,0.4,1.9,1.3,2.3,2.4c0.2,0.6,0.3,1.1,0.3,1.7  C199.5,238.1,199.4,238.7,199.1,239.2z M199.9,235.5c-0.2-0.6-0.6-1.1-1.1-1.6c-0.5-0.5-1-0.8-1.6-1.1c-0.6-0.3-1.3-0.4-2-0.4  c-0.7,0-1.4,0.1-2,0.4c-0.6,0.3-1.2,0.6-1.6,1.1c-0.5,0.5-0.8,1-1.1,1.6c-0.2,0.6-0.4,1.3-0.4,2c0,0.7,0.1,1.4,0.4,2  c0.3,0.6,0.6,1.2,1.1,1.6c0.5,0.5,1,0.8,1.6,1.1c0.6,0.3,1.3,0.4,2,0.4c0.7,0,1.4-0.1,2-0.4c0.6-0.3,1.2-0.6,1.6-1.1  c0.5-0.5,0.8-1,1.1-1.6c0.3-0.6,0.4-1.3,0.4-2C200.3,236.8,200.1,236.1,199.9,235.5z"></path>
<path class="st0" d="M195.7,237.2H194v-2h1.6c0.2,0,0.3,0,0.5,0c0.2,0,0.3,0.1,0.4,0.1c0.1,0.1,0.3,0.2,0.3,0.3  c0.1,0.2,0.2,0.3,0.1,0.5c0,0.2-0.1,0.5-0.2,0.6c-0.1,0.1-0.3,0.2-0.5,0.3C196.1,237.1,195.9,237.2,195.7,237.2z M197.3,237.3  c0.2-0.1,0.3-0.3,0.4-0.5c0.1-0.2,0.1-0.5,0.1-0.7c0-0.4-0.1-0.8-0.4-1.1c-0.5-0.3-1-0.5-1.6-0.4h-2.5v5.7h0.7v-2.6h1.3l1.6,2.6h0.9  l-1.8-2.6c0.2,0,0.5,0,0.7-0.1C196.9,237.6,197.1,237.5,197.3,237.3z"></path>
</svg>